<svg width="31" height="33" viewBox="0 0 31 33" fill="none" xmlns="http://www.w3.org/2000/svg">
<path id="Icon" d="M26.3801 5.06602C23.463 2.07033 19.5842 0.420593 15.4589 0.420593C11.3335 0.420593 7.45472 2.07033 4.53767 5.06602C1.62044 8.06153 0.013916 12.0446 0.013916 16.281C0.013916 20.5173 1.62044 24.5004 4.53767 27.4959C7.45472 30.4916 11.3335 32.1413 15.4589 32.1413C19.5842 32.1413 23.463 30.4916 26.3801 27.4959C29.2973 24.5004 30.9038 20.5173 30.9038 16.281C30.9038 12.0446 29.2973 8.06153 26.3801 5.06602ZM15.4589 29.6631C8.27335 29.6631 2.42719 23.6597 2.42719 16.281C2.42719 8.90217 8.27335 2.89878 15.4589 2.89878C22.6444 2.89878 28.4905 8.90217 28.4905 16.281C28.4905 23.6597 22.6444 29.6631 15.4589 29.6631ZM17.7718 16.9886L22.1621 21.4739L20.46 23.2311L16.0171 18.6916C15.8378 18.7355 15.6512 18.7591 15.4589 18.7591C14.1261 18.7591 13.0456 17.6496 13.0456 16.281C13.0456 15.3896 13.5041 14.6084 14.1919 14.1718V5.43891H15.3985H16.6052V14.0998C17.3595 14.5189 17.8721 15.3383 17.8721 16.281C17.8721 16.5268 17.8367 16.7642 17.7718 16.9886Z" fill="#E2E6E9"/>
</svg>
